<svg width="32" height="32" viewBox="0 0 32 32" fill="none" xmlns="http://www.w3.org/2000/svg">
    <rect width="32" height="32" rx="8" fill="#4F46E5"/>
    <path d="M16 6C16 6 18.5 11 23 11C25.5 11 26.5 9.5 26.5 9.5C26.5 9.5 25.5 20 23 20C18.5 20 16 15 16 15" stroke="white" stroke-width="2" stroke-linecap="round" stroke-linejoin="round"/>
    <path d="M16 6C16 6 13.5 11 9 11C6.5 11 5.5 9.5 5.5 9.5C5.5 9.5 6.5 20 9 20C13.5 20 16 15 16 15" stroke="white" stroke-width="2" stroke-linecap="round" stroke-linejoin="round"/>
    <path d="M16 15V23" stroke="white" stroke-width="2" stroke-linecap="round" stroke-linejoin="round"/>
</svg>
